<svg width="16" height="16" viewBox="0 0 16 16" fill="none" xmlns="http://www.w3.org/2000/svg">
<path d="M16 8C16 12.4183 12.4183 16 8 16C3.58172 16 0 12.4183 0 8C0 3.58172 3.58172 0 8 0C12.4183 0 16 3.58172 16 8Z" fill="#82BB3A"/>
<path fill-rule="evenodd" clip-rule="evenodd" d="M12.4983 4.43945C12.8079 4.71464 12.8358 5.18869 12.5606 5.49828L6.66667 12.1289L3.43945 8.49828C3.16426 8.18869 3.19215 7.71464 3.50174 7.43945C3.81132 7.16426 4.28538 7.19215 4.56056 7.50174L6.66667 9.87111L11.4395 4.50174C11.7146 4.19215 12.1887 4.16426 12.4983 4.43945Z" fill="white"/>
</svg>
