<svg width="726" height="90" viewBox="0 0 726 90" fill="none" xmlns="http://www.w3.org/2000/svg">
<path d="M381.357 454.999C381.357 454.999 445.265 440.11 381.358 265.421C317.451 90.7311 426.851 34.6207 533.834 -75.4829C533.834 -75.4829 409 -107 325 111.5C241 330 285.5 323 285.5 323L381.357 454.999Z" fill="#F1D8B9"/>
<path d="M-0.999112 483.501C139 506.999 441.768 441.841 378.856 306.085C315.944 170.33 326.072 101.063 433.055 -9.04039C433.055 -9.04039 169.5 -191 -1.0002 -149.5C-171.5 -108 -237 -5.50011 -258.5 98.5C-280 202.5 -247.501 285 -226 343C-204.5 401 -140.999 460.002 -0.999112 483.501Z" fill="#3B8149"/>
</svg>
