<svg width="24" height="24" viewBox="0 0 24 24" fill="none" xmlns="http://www.w3.org/2000/svg">
<path fill-rule="evenodd" clip-rule="evenodd" d="M6.46967 20.5303C6.76256 20.8232 7.23744 20.8232 7.53033 20.5303L11.5303 16.5303C11.8232 16.2374 11.8232 15.7626 11.5303 15.4697C11.2374 15.1768 10.7626 15.1768 10.4697 15.4697L7.75 18.1893V8C7.75 7.58579 7.41421 7.25 7 7.25C6.58579 7.25 6.25 7.58579 6.25 8V18.1893L3.53033 15.4697C3.23744 15.1768 2.76256 15.1768 2.46967 15.4697C2.17678 15.7626 2.17678 16.2374 2.46967 16.5303L6.46967 20.5303Z" fill="#1B223B"/>
<path fill-rule="evenodd" clip-rule="evenodd" d="M16.4697 3.46967C16.7626 3.17678 17.2374 3.17678 17.5303 3.46967L21.5303 7.46967C21.8232 7.76256 21.8232 8.23744 21.5303 8.53033C21.2374 8.82322 20.7626 8.82322 20.4697 8.53033L17.75 5.81066V16C17.75 16.4142 17.4142 16.75 17 16.75C16.5858 16.75 16.25 16.4142 16.25 16V5.81066L13.5303 8.53033C13.2374 8.82322 12.7626 8.82322 12.4697 8.53033C12.1768 8.23744 12.1768 7.76256 12.4697 7.46967L16.4697 3.46967Z" fill="#9DA7AF"/>
</svg>
