<svg width="24" height="24" viewBox="0 0 24 24" fill="none" xmlns="http://www.w3.org/2000/svg">
<path fill-rule="evenodd" clip-rule="evenodd" d="M6.46967 3.46967C6.76256 3.17678 7.23744 3.17678 7.53033 3.46967L11.5303 7.46967C11.8232 7.76256 11.8232 8.23744 11.5303 8.53033C11.2374 8.82322 10.7626 8.82322 10.4697 8.53033L7.75 5.81066V16C7.75 16.4142 7.41421 16.75 7 16.75C6.58579 16.75 6.25 16.4142 6.25 16V5.81066L3.53033 8.53033C3.23744 8.82322 2.76256 8.82322 2.46967 8.53033C2.17678 8.23744 2.17678 7.76256 2.46967 7.46967L6.46967 3.46967Z" fill="#1B223B"/>
<path fill-rule="evenodd" clip-rule="evenodd" d="M16.4697 20.5303C16.7626 20.8232 17.2374 20.8232 17.5303 20.5303L21.5303 16.5303C21.8232 16.2374 21.8232 15.7626 21.5303 15.4697C21.2374 15.1768 20.7626 15.1768 20.4697 15.4697L17.75 18.1893V8C17.75 7.58579 17.4142 7.25 17 7.25C16.5858 7.25 16.25 7.58579 16.25 8V18.1893L13.5303 15.4697C13.2374 15.1768 12.7626 15.1768 12.4697 15.4697C12.1768 15.7626 12.1768 16.2374 12.4697 16.5303L16.4697 20.5303Z" fill="#9DA7AF"/>
</svg>
