<svg width="54" height="32" viewBox="0 0 54 32" fill="none" xmlns="http://www.w3.org/2000/svg">
<path d="M31.015 18.378C31.015 18.058 30.88 17.882 30.671 17.756C30.461 17.636 30.207 17.621 29.861 17.621H28.318V20.441H28.993V19.414H29.713C29.953 19.414 30.103 19.438 30.191 19.539C30.311 19.669 30.295 19.919 30.295 20.089V20.439H30.955V19.884C30.953 19.634 30.938 19.508 30.847 19.368C30.7605 19.2612 30.6464 19.1803 30.517 19.134L30.537 19.126C30.6831 19.0646 30.8073 18.9604 30.8929 18.827C30.9786 18.6936 31.0219 18.5374 31.017 18.379L31.015 18.378ZM30.145 18.785L30.117 18.783C30.027 18.836 29.922 18.841 29.787 18.841H28.977V18.211H29.801C29.921 18.211 30.041 18.211 30.131 18.261C30.1784 18.2839 30.218 18.3203 30.2447 18.3657C30.2714 18.4111 30.2841 18.4634 30.281 18.516C30.281 18.636 30.236 18.731 30.147 18.786L30.145 18.785ZM35.297 19.837H34V20.437H35.304C35.98 20.437 36.354 20.159 36.354 19.553C36.354 19.273 36.288 19.105 36.167 18.971C36.014 18.838 35.775 18.778 35.437 18.764L35.061 18.749C34.957 18.749 34.881 18.749 34.806 18.719C34.7614 18.7054 34.7225 18.6774 34.6954 18.6395C34.6682 18.6015 34.6544 18.5556 34.656 18.509C34.656 18.419 34.673 18.343 34.746 18.299C34.8291 18.2534 34.9235 18.2326 35.018 18.239H36.248V17.637H34.898C34.194 17.637 33.94 18.074 33.94 18.477C33.94 19.377 34.716 19.332 35.347 19.347C35.451 19.347 35.527 19.362 35.572 19.407C35.618 19.437 35.654 19.513 35.654 19.587C35.654 19.664 35.619 19.737 35.574 19.767C35.514 19.82 35.424 19.837 35.297 19.837ZM15 4V14.096L15.81 12.22H17.56L17.785 12.684V12.22H19.828L20.278 13.24L20.715 12.227H27.217C27.512 12.227 27.777 12.284 27.973 12.463V12.233H29.76V12.463C30.067 12.293 30.446 12.233 30.88 12.233H33.486L33.726 12.699V12.233H35.644L35.898 12.698V12.232H37.756V16.18H35.87L35.51 15.58V16.165H33.157L32.901 15.535H32.318L32.048 16.149H30.835C30.355 16.149 29.995 16.045 29.755 15.909V16.149H26.865V15.265C26.865 15.145 26.835 15.145 26.76 15.13H26.655V16.166H21.067V15.686L20.857 16.166H19.69L19.488 15.686V16.151H17.235L16.979 15.527H16.4L16.144 16.151H15V28H38.786V20.892C38.516 21.027 38.173 21.072 37.813 21.072H36.09V20.817C35.88 20.982 35.52 21.072 35.176 21.072H29.71V20.172C29.71 20.052 29.692 20.052 29.59 20.052H29.515V21.074H27.715V20.008C27.417 20.144 27.072 20.158 26.787 20.144H26.573V21.059H24.393L23.853 20.442L23.283 21.042H19.742V17.112H23.352L23.87 17.714L24.424 17.114H26.836C27.116 17.114 27.576 17.144 27.778 17.339V17.099H29.955C30.157 17.099 30.599 17.144 30.858 17.324V17.084H34.123V17.324C34.286 17.16 34.631 17.084 34.926 17.084H36.816V17.324C37.01 17.174 37.28 17.084 37.656 17.084H38.832V4H15ZM36.156 18.955C36.16 18.96 36.162 18.967 36.166 18.971C36.176 18.981 36.19 18.981 36.198 18.991L36.156 18.956V18.955ZM38.828 17.082H38.893V17.637H38.828V17.082ZM38.865 19.03V19.025C38.835 19 38.819 18.977 38.79 18.955C38.64 18.802 38.4 18.74 38.026 18.73L37.666 18.718C37.575 18.722 37.4839 18.7119 37.396 18.688C37.3514 18.6744 37.3125 18.6464 37.2854 18.6085C37.2582 18.5705 37.2444 18.5246 37.246 18.478C37.246 18.388 37.276 18.318 37.336 18.274C37.412 18.229 37.486 18.224 37.606 18.224H38.829V17.636H37.546C36.856 17.636 36.586 18.073 36.586 18.476C36.586 19.376 37.366 19.331 37.996 19.346C38.1 19.346 38.176 19.361 38.22 19.406C38.266 19.436 38.296 19.512 38.296 19.586C38.296 19.656 38.262 19.724 38.206 19.766C38.161 19.822 38.07 19.836 37.936 19.836H36.648V20.441H37.935C38.355 20.441 38.669 20.323 38.835 20.081H38.865C38.955 19.947 39 19.781 39 19.558C39 19.318 38.955 19.168 38.865 19.032V19.03ZM33.597 18.208V17.625H31.362V20.458H33.597V19.873H32.027V19.303H33.56V18.719H32.028V18.209L33.597 18.208ZM28.51 12.787H29.195V15.6H28.511L28.51 12.787ZM28.126 13.543L28.119 13.549C28.119 13.235 27.989 13.049 27.779 12.925C27.562 12.8 27.309 12.79 26.969 12.79H25.43V15.61H26.104V14.576H26.824C27.064 14.576 27.214 14.606 27.311 14.696C27.433 14.832 27.418 15.074 27.418 15.244V15.598H28.095V15.045C28.095 14.795 28.079 14.67 27.985 14.529C27.8975 14.4226 27.7838 14.3409 27.655 14.292C27.827 14.222 28.127 13.992 28.127 13.542L28.126 13.543ZM27.271 13.939H27.256C27.166 13.993 27.061 13.995 26.926 13.995H26.1V13.372H26.925C27.045 13.372 27.165 13.376 27.255 13.422C27.345 13.462 27.405 13.55 27.405 13.672C27.405 13.794 27.358 13.892 27.271 13.938V13.939ZM30.92 13.373H31.552V12.773H30.908C30.444 12.773 30.104 12.878 29.888 13.103C29.602 13.403 29.526 13.793 29.526 14.213C29.526 14.725 29.649 15.046 29.886 15.287C30.118 15.525 30.531 15.597 30.856 15.597H31.636L31.891 14.97H33.281L33.543 15.597H34.903V13.487L36.175 15.597H37.125L37.127 15.599V12.786H36.443V14.749L35.263 12.789H34.243V15.4L33.11 12.744H32.106L31.163 14.964H30.863C30.686 14.964 30.501 14.934 30.395 14.83C30.27 14.68 30.209 14.47 30.209 14.168C30.209 13.883 30.289 13.658 30.403 13.538C30.536 13.403 30.675 13.373 30.919 13.373H30.92ZM32.588 13.265L33.052 14.383V14.385H32.122L32.588 13.265ZM17.38 14.97L17.634 15.598H19V13.393L19.972 15.598H20.556L21.529 13.396L21.544 15.598H22.234V12.788H21.118L20.311 14.692L19.435 12.787H18.343V15.45L17.205 12.787H16.208L15.01 15.597H15.73L15.99 14.971H17.38V14.97ZM16.692 13.265L17.152 14.383L17.149 14.385H16.234L16.691 13.265H16.692ZM26.856 17.62H24.714L23.864 18.543L23.039 17.621H20.346V20.441H23L23.855 19.509L24.679 20.439H25.981V19.499H26.819C27.419 19.499 27.989 19.335 27.989 18.554L27.983 18.551C27.983 17.771 27.385 17.621 26.855 17.621L26.856 17.62ZM22.67 19.853L22.656 19.851H21.02V19.294H22.49V18.72H21.02V18.21H22.7L23.433 19.03L22.669 19.854L22.67 19.853ZM25.312 20.183L24.282 19.036L25.312 17.928V20.181V20.183ZM26.865 18.925H25.98V18.208H26.865C27.105 18.208 27.285 18.306 27.285 18.552C27.285 18.795 27.135 18.924 26.865 18.924V18.925ZM24.967 13.373V12.787H22.73V15.6H24.967V15.02H23.4V14.456H24.927V13.88H23.4V13.373" fill="#016FCF"/>
</svg>
