<svg width="54" height="32" viewBox="0 0 54 32" fill="none" xmlns="http://www.w3.org/2000/svg">
<path d="M31.3474 18.3442V14.3409H35.3507V11.6721L40.6883 16.3425L35.3507 21.013V18.3442H31.3474ZM30.013 9.93734V11.6721H14V9.93734L22.0065 5L30.013 9.93734ZM20.6721 13.0065H23.3409V19.6786H20.6721V13.0065ZM15.3344 13.0065H18.0032V19.6786H15.3344V13.0065ZM28.6786 13.0065V16.3425L26.0097 18.7445V13.0065H28.6786ZM23.4744 21.013L22.6737 21.6802L24.9422 23.6818H14V21.013H23.4744ZM34.0162 19.6786V23.6818H30.013V26.3506L24.6753 21.6802L30.013 17.0097V19.6786H34.0162Z" fill="#1B223B"/>
</svg>
