<svg width="54" height="32" viewBox="0 0 54 32" fill="none" xmlns="http://www.w3.org/2000/svg">
<path d="M16.8176 28.8752V27.2205C16.8176 26.5861 16.4334 26.1725 15.7748 26.1725C15.4455 26.1725 15.0888 26.2828 14.8418 26.6414C14.6498 26.338 14.3754 26.1725 13.9638 26.1725C13.6893 26.1725 13.415 26.2552 13.1954 26.5586V26.2277H12.6191V28.8752H13.1954V27.4135C13.1954 26.9448 13.4424 26.724 13.8266 26.724C14.2106 26.724 14.4029 26.9723 14.4029 27.4135V28.8752H14.9791V27.4135C14.9791 26.9448 15.2534 26.724 15.6101 26.724C15.9944 26.724 16.1864 26.9723 16.1864 27.4135V28.8752H16.8176ZM25.3515 26.2277H24.4186V25.4279H23.8424V26.2277H23.321V26.7515H23.8423V27.9651C23.8423 28.5719 24.0893 28.9303 24.7479 28.9303C24.9949 28.9303 25.2691 28.8477 25.4614 28.7374L25.2966 28.2409C25.132 28.3512 24.94 28.3788 24.8028 28.3788C24.5284 28.3788 24.4186 28.2134 24.4186 27.9375V26.7515H25.3515V26.2277ZM30.236 26.1724C29.9068 26.1724 29.6873 26.338 29.55 26.5586V26.2277H28.9738V28.8752H29.55V27.386C29.55 26.9448 29.742 26.6965 30.0988 26.6965C30.2085 26.6965 30.3458 26.7242 30.4555 26.7517L30.6201 26.2002C30.5104 26.1725 30.3458 26.1725 30.236 26.1725V26.1724ZM22.8545 26.4483C22.58 26.2552 22.1959 26.1725 21.7843 26.1725C21.1258 26.1725 20.6868 26.5034 20.6868 27.0274C20.6868 27.4688 21.016 27.7169 21.5923 27.7997L21.8666 27.8273C22.1685 27.8823 22.3331 27.9651 22.3331 28.1031C22.3331 28.296 22.1136 28.434 21.7294 28.434C21.3453 28.434 21.0434 28.296 20.8513 28.1582L20.5769 28.5994C20.8788 28.82 21.2904 28.9303 21.7019 28.9303C22.4703 28.9303 22.9094 28.5719 22.9094 28.0754C22.9094 27.6066 22.5526 27.3583 22.0038 27.2757L21.7294 27.248C21.4824 27.2204 21.2904 27.1654 21.2904 26.9999C21.2904 26.8068 21.4824 26.6965 21.7843 26.6965C22.1136 26.6965 22.4429 26.8343 22.6075 26.9171L22.8545 26.4483ZM38.1664 26.1725C37.837 26.1725 37.6175 26.338 37.4803 26.5586V26.2277H36.904V28.8752H37.4803V27.386C37.4803 26.9448 37.6724 26.6965 38.029 26.6965C38.1389 26.6965 38.2761 26.7242 38.3859 26.7517L38.5505 26.2002C38.4408 26.1725 38.2761 26.1725 38.1664 26.1725ZM30.8123 27.5514C30.8123 28.3512 31.361 28.9303 32.2118 28.9303C32.5959 28.9303 32.8703 28.8477 33.1446 28.627L32.8703 28.1582C32.6508 28.3237 32.4313 28.4063 32.1843 28.4063C31.7178 28.4063 31.3885 28.0754 31.3885 27.5514C31.3885 27.0551 31.7178 26.724 32.1843 26.6965C32.4313 26.6965 32.6508 26.7792 32.8703 26.9448L33.1446 26.4759C32.8703 26.2552 32.5959 26.1725 32.2118 26.1725C31.361 26.1725 30.8123 26.7517 30.8123 27.5514ZM36.1358 27.5514V26.2277H35.5595V26.5586C35.3674 26.3105 35.093 26.1725 34.7363 26.1725C33.9954 26.1725 33.4191 26.7517 33.4191 27.5514C33.4191 28.3512 33.9954 28.9303 34.7363 28.9303C35.1204 28.9303 35.3949 28.7925 35.5595 28.5443V28.8752H36.1358V27.5514ZM34.0228 27.5514C34.0228 27.0826 34.3246 26.6965 34.8185 26.6965C35.285 26.6965 35.6144 27.0551 35.6144 27.5514C35.6144 28.0203 35.285 28.4063 34.8185 28.4063C34.3246 28.3787 34.0228 28.0203 34.0228 27.5514ZM27.1353 26.1725C26.3669 26.1725 25.818 26.724 25.818 27.5514C25.818 28.3788 26.3668 28.9303 27.1626 28.9303C27.5468 28.9303 27.931 28.82 28.2329 28.5719L27.9584 28.1582C27.7389 28.3237 27.4645 28.434 27.1901 28.434C26.8334 28.434 26.4766 28.2685 26.3943 27.7995H28.3426V27.5791C28.3701 26.724 27.8761 26.1725 27.1351 26.1725H27.1353ZM27.1353 26.6689C27.4919 26.6689 27.739 26.8896 27.7938 27.3033H26.4218C26.4766 26.9448 26.7236 26.6689 27.1353 26.6689ZM41.4318 27.5514V25.1797H40.8555V26.5586C40.6634 26.3105 40.389 26.1725 40.0323 26.1725C39.2914 26.1725 38.7151 26.7517 38.7151 27.5514C38.7151 28.3512 39.2914 28.9303 40.0323 28.9303C40.4165 28.9303 40.6909 28.7925 40.8555 28.5443V28.8752H41.4318V27.5514ZM39.3189 27.5514C39.3189 27.0826 39.6206 26.6965 40.1146 26.6965C40.5811 26.6965 40.9104 27.0551 40.9104 27.5514C40.9104 28.0203 40.5811 28.4063 40.1146 28.4063C39.6206 28.3787 39.3189 28.0203 39.3189 27.5514ZM20.0555 27.5514V26.2277H19.4793V26.5586C19.2871 26.3105 19.0128 26.1725 18.656 26.1725C17.9151 26.1725 17.3389 26.7517 17.3389 27.5514C17.3389 28.3512 17.9151 28.9303 18.656 28.9303C19.0403 28.9303 19.3146 28.7925 19.4793 28.5443V28.8752H20.0555V27.5514ZM17.9151 27.5514C17.9151 27.0826 18.217 26.6965 18.7109 26.6965C19.1774 26.6965 19.5068 27.0551 19.5068 27.5514C19.5068 28.0203 19.1774 28.4063 18.7109 28.4063C18.217 28.3787 17.9151 28.0203 17.9151 27.5514Z" fill="black"/>
<path d="M22.6621 6.12305H31.3059V21.7325H22.6621V6.12305Z" fill="#FF5F00"/>
<path d="M23.2111 13.9283C23.2111 10.7568 24.6929 7.94372 26.9704 6.12349C25.2966 4.79975 23.1838 4 20.8787 4C15.4179 4 11 8.44007 11 13.9283C11 19.4163 15.4179 23.8565 20.8786 23.8565C23.1836 23.8565 25.2965 23.0568 26.9704 21.7329C24.6929 19.9403 23.2111 17.0997 23.2111 13.9283Z" fill="#EB001B"/>
<path d="M42.9684 13.9283C42.9684 19.4163 38.5505 23.8565 33.0898 23.8565C30.7848 23.8565 28.6719 23.0568 26.998 21.7329C29.303 19.9128 30.7574 17.0997 30.7574 13.9283C30.7574 10.7568 29.2755 7.94372 26.998 6.12349C28.6718 4.79975 30.7848 4 33.0898 4C38.5505 4 42.9685 8.46771 42.9685 13.9283H42.9684Z" fill="#F79E1B"/>
</svg>
