<svg width="54" height="32" viewBox="0 0 54 32" fill="none" xmlns="http://www.w3.org/2000/svg">
<path d="M48.7192 11.4375H47.1146C46.9551 11.4375 46.8613 11.517 46.8326 11.6761L45.423 20.6977L45.4012 20.7411C45.4012 20.8137 45.4301 20.8821 45.4881 20.9472C45.5456 21.0121 45.6183 21.0447 45.7049 21.0447H47.1363C47.4107 21.0447 47.5625 20.9076 47.5918 20.6327L49.0014 11.7626V11.7411C49.0013 11.5387 48.9071 11.4375 48.7192 11.4375ZM44.8808 14.6253H43.2325C43.03 14.6253 42.9074 14.8639 42.8641 15.3411C42.4877 14.763 41.8015 14.4735 40.8036 14.4735C39.7627 14.4735 38.8769 14.8639 38.1471 15.6447C37.4169 16.4254 37.052 17.3437 37.052 18.399C37.052 19.2521 37.3013 19.9316 37.8 20.4374C38.2988 20.9438 38.9675 21.1965 39.8062 21.1965C40.2254 21.1965 40.6519 21.1096 41.0856 20.9362C41.5193 20.7627 41.8588 20.5315 42.1051 20.2423C42.1051 20.2568 42.0903 20.3217 42.0616 20.4373C42.0325 20.5532 42.0182 20.6401 42.0182 20.6976C42.0182 20.9292 42.112 21.0445 42.3002 21.0445H43.7967C44.0709 21.0445 44.2303 20.9074 44.2735 20.6326L45.1628 14.9723C45.1771 14.8855 45.1553 14.8061 45.0977 14.7338C45.0396 14.6616 44.9676 14.6253 44.8808 14.6253ZM42.0507 18.8977C41.6821 19.2592 41.2375 19.4398 40.7171 19.4398C40.2976 19.4398 39.9582 19.3243 39.6978 19.0928C39.4374 18.8619 39.3073 18.5438 39.3073 18.1386C39.3073 17.604 39.488 17.1519 39.8495 16.7833C40.2106 16.4146 40.6592 16.2302 41.1941 16.2302C41.5986 16.2302 41.9348 16.3496 42.2026 16.588C42.4698 16.8266 42.6038 17.1556 42.6038 17.5749C42.6037 18.0954 42.4194 18.5364 42.0507 18.8977ZM36.7374 12.0121C36.1807 11.6293 35.4544 11.4375 34.558 11.4375H31.1099C30.8206 11.4375 30.6614 11.5749 30.6327 11.8495L29.2232 20.6977C29.2085 20.7846 29.2301 20.864 29.2881 20.9363C29.3456 21.0087 29.4183 21.0447 29.505 21.0447H31.2832C31.4567 21.0447 31.5723 20.9508 31.6301 20.7628L32.0206 18.2473C32.0349 18.1317 32.0856 18.0377 32.1724 17.9653C32.2591 17.8931 32.3674 17.8458 32.4977 17.8241C32.6278 17.8026 32.7504 17.7918 32.8664 17.7918C32.9819 17.7918 33.1193 17.7991 33.2783 17.8135C33.4374 17.828 33.5388 17.835 33.5819 17.835C34.8254 17.835 35.8012 17.4847 36.5096 16.7833C37.2181 16.0822 37.5722 15.11 37.5722 13.8664C37.5723 13.0135 37.2938 12.3954 36.7374 12.0121ZM34.5146 15.5796C34.1965 15.7965 33.7193 15.9048 33.0833 15.9048L32.3892 15.9265L32.7581 13.606C32.7867 13.4471 32.8806 13.3676 33.0399 13.3676H33.4302C33.7481 13.3676 34.0011 13.382 34.1893 13.4109C34.3771 13.44 34.558 13.5301 34.7314 13.6819C34.905 13.8337 34.9917 14.0543 34.9917 14.3434C34.9917 14.9507 34.8325 15.3626 34.5146 15.5796Z" fill="#009CDE"/>
<path d="M12.1008 10.1976C11.5441 9.81488 10.8176 9.62305 9.92129 9.62305H6.45144C6.17668 9.62305 6.02488 9.76046 5.99605 10.035L4.58646 18.8832C4.57181 18.9701 4.59355 19.0496 4.65148 19.1218C4.70909 19.1942 4.78154 19.2302 4.86831 19.2302H6.51647C6.80554 19.2302 6.96443 19.0931 6.9936 18.8182L7.3839 16.4328C7.39815 16.3172 7.44899 16.2232 7.53576 16.1509C7.62246 16.0786 7.73091 16.0313 7.86103 16.0097C7.99115 15.9882 8.11385 15.9774 8.22972 15.9774C8.34526 15.9774 8.48254 15.9847 8.64182 15.9991C8.80071 16.0135 8.902 16.0205 8.94542 16.0205C10.1887 16.0205 11.1646 15.6702 11.8731 14.9688C12.5813 14.2677 12.9358 13.2955 12.9358 12.0519C12.9358 11.199 12.6573 10.581 12.1008 10.1976ZM10.3117 12.8544C10.2392 13.3605 10.0515 13.6929 9.74789 13.852C9.44423 14.0112 9.01051 14.0905 8.44674 14.0905L7.73104 14.1121L8.0998 11.7916C8.12856 11.6327 8.22249 11.5532 8.38165 11.5532H8.79382C9.37184 11.5532 9.79137 11.6365 10.0516 11.8025C10.3117 11.9689 10.3985 12.3196 10.3117 12.8544ZM29.3308 13.1144C29.3308 13.0423 29.3017 12.9735 29.2443 12.9086C29.1863 12.8435 29.1211 12.8109 29.0491 12.8109H27.3791C27.2198 12.8109 27.0897 12.8835 26.9888 13.0277L24.69 16.411L23.7358 13.1579C23.6632 12.9268 23.5043 12.8109 23.2588 12.8109H21.632C21.5596 12.8109 21.4945 12.8435 21.4371 12.9086C21.3791 12.9735 21.3503 13.0424 21.3503 13.1144C21.3503 13.1436 21.4913 13.5699 21.7731 14.394C22.055 15.2183 22.3586 16.1074 22.6839 17.0617C23.0093 18.0158 23.179 18.5221 23.1935 18.5795C22.0079 20.1989 21.4153 21.0664 21.4153 21.1819C21.4153 21.37 21.5092 21.4639 21.6972 21.4639H23.3671C23.5261 21.4639 23.6561 21.3918 23.7575 21.2471L29.2876 13.2662C29.3165 13.2375 29.3308 13.1872 29.3308 13.1144ZM20.2443 12.8109H18.5961C18.3934 12.8109 18.2707 13.0495 18.2273 13.5266C17.8369 12.9485 17.1501 12.6591 16.167 12.6591C15.1261 12.6591 14.2404 13.0495 13.5104 13.8302C12.7802 14.6109 12.4153 15.5292 12.4153 16.5845C12.4153 17.4377 12.6647 18.1171 13.1635 18.623C13.6623 19.1293 14.3308 19.382 15.1695 19.382C15.5741 19.382 15.9936 19.2951 16.4273 19.1218C16.861 18.9483 17.208 18.7171 17.4683 18.4278C17.4103 18.6013 17.3815 18.7531 17.3815 18.8831C17.3815 19.1147 17.4754 19.2301 17.6634 19.2301H19.1598C19.4343 19.2301 19.5935 19.093 19.6369 18.8181L20.526 13.1579C20.5403 13.0711 20.5187 12.9917 20.461 12.9193C20.4031 12.8471 20.3309 12.8109 20.2443 12.8109ZM17.4141 17.094C17.0454 17.4486 16.5933 17.6253 16.0587 17.6253C15.6392 17.6253 15.3031 17.5099 15.0502 17.2784C14.7971 17.0474 14.6707 16.7293 14.6707 16.3242C14.6707 15.7896 14.8513 15.3374 15.2129 14.9688C15.5741 14.6001 16.0223 14.4158 16.5575 14.4158C16.9621 14.4158 17.2982 14.5351 17.566 14.7735C17.8332 15.0122 17.9671 15.3412 17.9671 15.7605C17.9671 16.2954 17.7828 16.7401 17.4141 17.094Z" fill="#003087"/>
</svg>
