<svg width="54" height="32" viewBox="0 0 54 32" fill="none" xmlns="http://www.w3.org/2000/svg">
<path d="M27.7557 13.7756C27.7306 15.8568 29.5197 17.0181 30.8674 17.7087C32.252 18.4171 32.7171 18.8714 32.7116 19.5051C32.7013 20.4746 31.6071 20.9026 30.5833 20.9192C28.797 20.9483 27.7583 20.4121 26.9326 20.0066L26.2891 23.1726C27.1176 23.574 28.6515 23.9241 30.2423 23.9395C33.9762 23.9395 36.4191 22.0014 36.4323 18.9965C36.4469 15.1829 31.4156 14.9718 31.45 13.2672C31.4619 12.7504 31.9309 12.1988 32.9587 12.0586C33.4675 11.9877 34.8719 11.9335 36.4641 12.7045L37.0891 9.6412C36.2328 9.31337 35.1323 8.99945 33.7621 8.99945C30.2476 8.99945 27.7757 10.9639 27.7557 13.7756ZM43.094 9.26331C42.4122 9.26331 41.8376 9.6815 41.5812 10.3232L36.2474 23.7145H39.9786L40.7211 21.5568H45.2806L45.7113 23.7145H49L46.1302 9.26331H43.094ZM43.616 13.1671L44.6928 18.5937H41.7438L43.616 13.1671ZM23.2318 9.26349L20.2907 23.7143H23.8463L26.786 9.26313H23.2318V9.26349ZM17.9719 9.26313L14.2711 19.0993L12.7741 10.736C12.5984 9.80241 11.9047 9.26331 11.1344 9.26331H5.08473L5 9.68295C6.24197 9.96632 7.65306 10.4234 8.50797 10.9124C9.03116 11.2111 9.18034 11.4723 9.35222 12.1822L12.1876 23.7145H15.945L21.7056 9.26331H17.9719" fill="url(#paint0_linear_192_2023)"/>
<defs>
<linearGradient id="paint0_linear_192_2023" x1="25.2286" y1="24.2391" x2="25.6832" y2="8.89684" gradientUnits="userSpaceOnUse">
<stop stop-color="#222357"/>
<stop offset="1" stop-color="#254AA5"/>
</linearGradient>
</defs>
</svg>
