<svg width="227" height="32" viewBox="0 0 227 32" fill="none" xmlns="http://www.w3.org/2000/svg">
<path d="M221.733 6.37578L223.36 8.89668H222.18L220.699 6.51583H219.639V8.89668H218.559V2.89453H220.679C222.147 2.89453 222.994 3.49475 222.994 4.69518C223.021 5.08021 222.909 5.46236 222.678 5.7712C222.446 6.08004 222.111 6.29475 221.733 6.37578ZM220.679 3.80819H219.639V5.63551H220.686C221.526 5.63551 221.9 5.36208 221.9 4.72852C221.9 4.09496 221.52 3.80819 220.679 3.80819Z" fill="#1B223B"/>
<path d="M220.64 1.38156C221.538 1.38024 222.416 1.64526 223.162 2.14306C223.909 2.64086 224.491 3.34905 224.835 4.17798C225.18 5.00691 225.27 5.91929 225.095 6.7996C224.92 7.67992 224.488 8.48858 223.854 9.12321C223.219 9.75783 222.41 10.1899 221.53 10.3647C220.65 10.5394 219.737 10.4491 218.908 10.105C218.08 9.76092 217.371 9.17863 216.874 8.43184C216.376 7.68505 216.111 6.80734 216.112 5.90985C216.114 4.70941 216.591 3.55865 217.44 2.70981C218.289 1.86098 219.44 1.38332 220.64 1.38156ZM220.64 0.667969C219.604 0.667969 218.59 0.9754 217.728 1.55138C216.866 2.12737 216.194 2.94604 215.797 3.90387C215.401 4.86169 215.297 5.91566 215.499 6.93249C215.701 7.94931 216.201 8.88332 216.934 9.61641C217.667 10.3495 218.601 10.8487 219.618 11.051C220.635 11.2533 221.688 11.1495 222.646 10.7527C223.604 10.356 224.423 9.6841 224.999 8.82207C225.575 7.96005 225.882 6.94659 225.882 5.90985C225.882 4.51962 225.33 3.18632 224.347 2.20328C223.364 1.22024 222.031 0.667969 220.64 0.667969Z" fill="#1B223B"/>
<path d="M9.49007 10.1576C9.49255 9.14011 9.28336 8.13325 8.87578 7.20097C8.4682 6.2687 7.87114 5.43141 7.12255 4.74231C6.36702 3.99979 5.4716 3.41466 4.48821 3.02085C3.50482 2.62704 2.45303 2.43237 1.39383 2.44815H0.373468C0.27381 2.4499 0.178825 2.49072 0.108972 2.56182C0.0391182 2.63292 -1.53357e-05 2.72862 4.50831e-09 2.82829V25.7365C4.50831e-09 25.8355 0.0393475 25.9305 0.109386 26.0006C0.179425 26.0706 0.274418 26.11 0.373468 26.11H1.39383C1.49288 26.11 1.58788 26.0706 1.65791 26.0006C1.72795 25.9305 1.7673 25.8355 1.7673 25.7365V17.7336C3.74262 17.6811 5.62487 16.8829 7.03585 15.4995C7.80356 14.8367 8.41996 14.0168 8.84337 13.0952C9.26678 12.1736 9.48732 11.1718 9.49007 10.1576ZM1.7673 4.08874C3.31971 4.13092 4.79312 4.78257 5.86877 5.90272C6.44883 6.44477 6.91192 7.09973 7.22954 7.82733C7.54717 8.55493 7.71263 9.3398 7.71575 10.1337C7.71887 10.9276 7.55959 11.7138 7.2477 12.4438C6.93581 13.1739 6.4779 13.8325 5.90212 14.3791C5.36436 14.9344 4.72232 15.378 4.0128 15.6847C3.30327 15.9914 2.54019 16.1551 1.7673 16.1664V4.08874ZM1.64059 17.3935C2.55651 17.3956 3.46357 17.2142 4.30821 16.86C3.46357 17.2142 2.55651 17.3956 1.64059 17.3935Z" fill="#1B223B"/>
<path d="M19.0463 2.10909C19.0153 2.04709 18.9678 1.99491 18.9089 1.9584C18.85 1.92189 18.7821 1.90248 18.7128 1.90235C18.6426 1.90201 18.5736 1.92115 18.5135 1.95764C18.4535 1.99414 18.4047 2.04656 18.3727 2.10909L6.82856 25.5708C6.79879 25.6262 6.7832 25.688 6.7832 25.7509C6.7832 25.8137 6.79879 25.8756 6.82856 25.931C6.86138 25.9865 6.90826 26.0323 6.96446 26.0639C7.02066 26.0955 7.08419 26.1118 7.14867 26.111H8.10235C8.17261 26.1114 8.24159 26.0922 8.30163 26.0557C8.36167 26.0192 8.41042 25.9668 8.44247 25.9043L12.6773 17.3746H24.5949L28.9031 25.9043C28.9341 25.9663 28.9816 26.0184 29.0405 26.055C29.0994 26.0915 29.1673 26.1109 29.2366 26.111H30.317C30.3812 26.1105 30.4442 26.0937 30.5002 26.0622C30.5562 26.0307 30.6033 25.9856 30.6371 25.931C30.6681 25.876 30.6843 25.814 30.6843 25.7509C30.6843 25.6878 30.6681 25.6258 30.6371 25.5708L19.0463 2.10909ZM13.4509 15.7406L18.6194 5.23021L23.848 15.7406H13.4509Z" fill="#1B223B"/>
<path d="M45.6627 2.44922H44.6424C44.5427 2.45097 44.4477 2.49179 44.3779 2.56289C44.308 2.63399 44.2689 2.72968 44.2689 2.82935V19.2619C44.2983 20.0095 44.1737 20.7552 43.903 21.4527C43.6322 22.1502 43.2211 22.7847 42.695 23.3167C41.6442 24.3388 40.2362 24.9107 38.7703 24.9107C37.3044 24.9107 35.8963 24.3388 34.8455 23.3167C34.3191 22.7871 33.9066 22.1553 33.6336 21.4602C33.3606 20.7652 33.2329 20.0216 33.2583 19.2752V2.82935C33.2583 2.72968 33.2192 2.63399 33.1493 2.56289C33.0795 2.49179 32.9845 2.45097 32.8848 2.44922H31.8645C31.7648 2.45097 31.6698 2.49179 31.6 2.56289C31.5301 2.63399 31.491 2.72968 31.491 2.82935V19.2886C31.4644 20.2486 31.634 21.2039 31.9895 22.0961C32.345 22.9883 32.8788 23.7985 33.5584 24.4771C34.2196 25.146 35.0098 25.6736 35.8811 26.0278C36.7524 26.3821 37.6865 26.5556 38.6269 26.5378H38.907C39.8438 26.5527 40.7738 26.3758 41.6397 26.018C42.5056 25.6602 43.2891 25.129 43.9421 24.4571C44.6237 23.7713 45.159 22.9543 45.5155 22.0556C45.872 21.1569 46.0424 20.1951 46.0162 19.2286V2.82935C46.0149 2.73345 45.978 2.64144 45.9127 2.57119C45.8474 2.50095 45.7583 2.45748 45.6627 2.44922Z" fill="#1B223B"/>
<path d="M58.4744 24.4704H51.6919V2.82935C51.6902 2.72907 51.6496 2.63338 51.5787 2.56245C51.5078 2.49153 51.4121 2.45093 51.3118 2.44922H50.2981C50.1973 2.44922 50.1006 2.48927 50.0293 2.56056C49.958 2.63185 49.918 2.72854 49.918 2.82935V25.7376C49.918 25.7872 49.9278 25.8363 49.947 25.882C49.9662 25.9278 49.9943 25.9693 50.0297 26.004C50.0651 26.0388 50.1071 26.0662 50.1531 26.0845C50.1992 26.1029 50.2485 26.1119 50.2981 26.111H58.4744C58.574 26.111 58.6697 26.0719 58.7408 26.0021C58.8119 25.9322 58.8528 25.8372 58.8545 25.7376V24.8506C58.8528 24.7503 58.8122 24.6546 58.7413 24.5837C58.6703 24.5128 58.5747 24.4722 58.4744 24.4704Z" fill="#1B223B"/>
<path d="M69.1576 2.05607C67.5281 2.03244 65.9106 2.33739 64.4015 2.95269C62.8925 3.568 61.5229 4.48105 60.3745 5.63735C59.2088 6.73389 58.282 8.05918 57.652 9.53031C57.022 11.0014 56.7024 12.5868 56.7132 14.1871C56.7082 15.7915 57.0249 17.3807 57.6446 18.8606C58.2643 20.3406 59.1744 21.6813 60.3211 22.8035C61.4174 23.9726 62.7432 24.903 64.2154 25.5365C65.6877 26.1699 67.2748 26.4927 68.8775 26.4848H69.3443C70.9537 26.4993 72.5487 26.1809 74.0291 25.5497C75.5096 24.9185 76.8436 23.9881 77.9474 22.8168C79.0951 21.6933 80.0049 20.3502 80.6225 18.8676C81.2401 17.3849 81.5528 15.7932 81.542 14.1871C81.5539 12.5897 81.2381 11.0068 80.6141 9.53625C79.9901 8.06571 79.0711 6.73875 77.9141 5.63735C76.7716 4.48059 75.4068 3.56698 73.902 2.95151C72.3971 2.33605 70.7833 2.03145 69.1576 2.05607ZM79.7747 14.2671C79.793 16.7393 78.9521 19.1412 77.396 21.0622C75.8398 22.9833 73.6648 24.3044 71.2427 24.7998C68.8205 25.2952 66.3015 24.9341 64.1161 23.7783C61.9306 22.6225 60.2143 20.7437 59.2603 18.4629C58.3064 16.182 58.1741 13.6407 58.886 11.2731C59.5979 8.90556 61.1098 6.85865 63.1635 5.48214C65.2171 4.10563 67.685 3.48493 70.1455 3.72611C72.606 3.96728 74.9064 5.05536 76.6536 6.80444C77.6541 7.77062 78.447 8.93079 78.9836 10.214C79.5203 11.4971 79.7895 12.8763 79.7747 14.2671Z" fill="#1B223B"/>
<path d="M111.392 2.44808H110.559C110.485 2.44742 110.413 2.4686 110.351 2.50895C110.289 2.5493 110.241 2.60702 110.212 2.67482L101.209 22.9754L97.2071 13.8588L101.975 2.96826C102.001 2.91141 102.012 2.84906 102.007 2.78689C102.003 2.72471 101.983 2.6647 101.949 2.61232C101.915 2.55994 101.869 2.51685 101.814 2.487C101.759 2.45715 101.698 2.44147 101.635 2.44141H100.768C100.696 2.44288 100.625 2.465 100.565 2.50517C100.505 2.54534 100.457 2.60189 100.428 2.66815L96.3601 11.9248L92.412 2.67482C92.3827 2.60678 92.3344 2.54861 92.2729 2.50723C92.2114 2.46585 92.1393 2.443 92.0653 2.44141H90.9248C90.8624 2.44232 90.8011 2.45863 90.7464 2.48887C90.6917 2.51911 90.6454 2.56237 90.6114 2.6148C90.5838 2.66964 90.5695 2.73016 90.5695 2.79153C90.5695 2.85291 90.5838 2.91343 90.6114 2.96826L95.3331 13.8788L91.4517 22.8621L82.6219 2.67482C82.5922 2.60753 82.5436 2.55029 82.4821 2.51005C82.4205 2.4698 82.3486 2.44828 82.2751 2.44808H81.1347C81.0721 2.4484 81.0106 2.46444 80.9558 2.49474C80.901 2.52504 80.8548 2.56862 80.8212 2.62147C80.7937 2.67631 80.7793 2.73683 80.7793 2.7982C80.7793 2.85957 80.7937 2.9201 80.8212 2.97493L90.9248 26.31C90.9555 26.376 91.0045 26.4318 91.066 26.4709C91.1274 26.5099 91.1988 26.5304 91.2716 26.53C91.3444 26.5304 91.4158 26.5099 91.4773 26.4709C91.5388 26.4318 91.5878 26.376 91.6184 26.31L96.1801 15.9129L100.768 26.31C100.798 26.3755 100.846 26.4311 100.906 26.4701C100.966 26.5092 101.037 26.53 101.108 26.53C101.181 26.5304 101.253 26.5099 101.314 26.4709C101.376 26.4318 101.425 26.376 101.455 26.31L111.732 2.96826C111.761 2.91393 111.777 2.85321 111.777 2.79153C111.777 2.72986 111.761 2.66914 111.732 2.6148C111.695 2.5597 111.644 2.51531 111.584 2.48606C111.525 2.4568 111.458 2.44371 111.392 2.44808ZM100.768 2.82821L96.3534 12.8718L100.768 2.82821Z" fill="#1B223B"/>
<path d="M132.354 2.44872H131.461C131.36 2.45044 131.265 2.49104 131.194 2.56196C131.123 2.63288 131.082 2.72858 131.08 2.82886V22.1691L114.708 2.25532C114.673 2.21099 114.628 2.17529 114.578 2.151C114.527 2.12671 114.471 2.11449 114.414 2.11527H114.288C114.216 2.14228 114.154 2.19053 114.109 2.25364C114.065 2.31675 114.042 2.39176 114.041 2.46873V25.7371C114.041 25.8361 114.08 25.9311 114.15 26.0011C114.22 26.0712 114.315 26.1105 114.414 26.1105H115.315C115.414 26.1105 115.509 26.0712 115.579 26.0011C115.649 25.9311 115.688 25.8361 115.688 25.7371V6.3968L132.061 26.3106C132.097 26.353 132.142 26.3869 132.193 26.4099C132.243 26.433 132.299 26.4446 132.354 26.444C132.396 26.4504 132.439 26.4504 132.481 26.444C132.554 26.4178 132.616 26.3697 132.66 26.3064C132.705 26.2432 132.728 26.1677 132.728 26.0905V2.82886C132.728 2.72918 132.689 2.63349 132.619 2.56239C132.549 2.49129 132.454 2.45047 132.354 2.44872Z" fill="#1B223B"/>
<path d="M138.156 2.44922H137.135C136.929 2.44922 136.762 2.61642 136.762 2.82268V25.7376C136.762 25.9438 136.929 26.111 137.135 26.111H138.156C138.362 26.111 138.529 25.9438 138.529 25.7376V2.82268C138.529 2.61642 138.362 2.44922 138.156 2.44922Z" fill="#1B223B"/>
<path d="M153.435 2.10913C153.404 2.04713 153.356 1.99496 153.297 1.95845C153.239 1.92194 153.171 1.90253 153.101 1.90239C153.031 1.90128 152.962 1.92009 152.902 1.95667C152.841 1.99325 152.793 2.04611 152.761 2.10913L141.217 25.5709C141.186 25.6258 141.17 25.6878 141.17 25.7509C141.17 25.814 141.186 25.876 141.217 25.931C141.251 25.9856 141.298 26.0308 141.354 26.0623C141.41 26.0937 141.473 26.1105 141.537 26.1111H142.498C142.567 26.1109 142.635 26.0915 142.694 26.055C142.753 26.0185 142.8 25.9663 142.831 25.9043L147.053 17.3746H158.95L163.232 25.9043C163.263 25.9658 163.311 26.0176 163.37 26.054C163.428 26.0905 163.496 26.1102 163.565 26.1111H164.646C164.71 26.1118 164.774 26.0956 164.83 26.064C164.886 26.0324 164.933 25.9865 164.966 25.931C164.999 25.8767 165.016 25.8144 165.016 25.7509C165.016 25.6874 164.999 25.6251 164.966 25.5709L153.435 2.10913ZM147.84 15.7407L153.008 5.23025L158.237 15.7407H147.84Z" fill="#1B223B"/>
<path d="M170.388 23.8828C169.594 23.8828 169.154 24.283 169.154 25.0099C169.154 25.7368 169.594 26.137 170.388 26.137C171.182 26.137 171.622 25.7368 171.622 25.0099C171.622 24.283 171.182 23.8828 170.388 23.8828Z" fill="#1B223B"/>
<path d="M181.431 11.6393C180.128 11.6468 178.85 12.0013 177.73 12.6663C176.812 13.1745 176.032 13.8977 175.456 14.7737V12.1328C175.454 12.0838 175.434 12.0373 175.399 12.0026C175.364 11.9679 175.318 11.9477 175.269 11.9461H174.288C174.239 11.9461 174.191 11.9657 174.156 12.0008C174.121 12.0358 174.102 12.0833 174.102 12.1328V31.7798C174.101 31.8046 174.105 31.8293 174.114 31.8524C174.123 31.8755 174.137 31.8964 174.154 31.914C174.172 31.9315 174.193 31.9452 174.216 31.9543C174.239 31.9633 174.264 31.9675 174.288 31.9666H175.255C175.305 31.9666 175.352 31.9469 175.387 31.9119C175.422 31.8769 175.442 31.8294 175.442 31.7798V23.1101C176.052 23.993 176.854 24.7252 177.79 25.2508C178.89 25.8981 180.141 26.2454 181.418 26.2579C182.381 26.2579 183.335 26.0681 184.225 25.6994C185.115 25.3308 185.924 24.7904 186.605 24.1092C187.286 23.428 187.827 22.6193 188.195 21.7292C188.564 20.8392 188.754 19.8853 188.754 18.9219C188.754 17.9585 188.564 17.0046 188.195 16.1145C187.827 15.2245 187.286 14.4158 186.605 13.7346C185.924 13.0534 185.115 12.513 184.225 12.1444C183.335 11.7757 182.381 11.5859 181.418 11.5859L181.431 11.6393ZM181.478 25.0574C179.87 25.0401 178.333 24.3937 177.196 23.2568C176.059 22.1199 175.413 20.583 175.395 18.9753C175.392 18.1736 175.55 17.3794 175.861 16.6403C176.171 15.9012 176.628 15.2324 177.203 14.6737C177.749 14.0925 178.41 13.6303 179.143 13.3158C179.876 13.0014 180.667 12.8416 181.464 12.8464C182.257 12.8396 183.043 12.9973 183.772 13.3095C184.501 13.6217 185.157 14.0817 185.699 14.6604C186.831 15.8008 187.465 17.3422 187.465 18.9486C187.465 20.555 186.831 22.0963 185.699 23.2368C185.158 23.8111 184.503 24.2671 183.776 24.5758C183.05 24.8846 182.267 25.0395 181.478 25.0308V25.0574Z" fill="#1B223B"/>
<path d="M196.724 11.6379C195.791 11.6182 194.87 11.8485 194.056 12.3048C193.509 12.6089 193.03 13.022 192.649 13.5186V12.1314C192.647 12.0813 192.626 12.0338 192.59 11.9989C192.554 11.9641 192.506 11.9446 192.456 11.9447H191.495C191.446 11.9463 191.4 11.9665 191.365 12.0012C191.33 12.0359 191.31 12.0824 191.309 12.1314V25.7363C191.31 25.7853 191.33 25.8318 191.365 25.8665C191.4 25.9011 191.446 25.9213 191.495 25.923H192.462C192.513 25.923 192.561 25.9036 192.597 25.8687C192.633 25.8339 192.654 25.7864 192.656 25.7363V16.6664C192.656 16.1653 192.76 15.6698 192.961 15.2108C193.162 14.7518 193.455 14.3392 193.823 13.9987C194.168 13.6376 194.581 13.3494 195.04 13.1512C195.498 12.953 195.991 12.8489 196.49 12.845C197.018 12.8572 197.538 12.9764 198.018 13.1954C198.499 13.4143 198.929 13.7285 199.285 14.1188C199.312 14.1447 199.346 14.1623 199.382 14.1694C199.419 14.1765 199.457 14.1728 199.492 14.1588C199.525 14.1443 199.554 14.1201 199.574 14.0893C199.595 14.0584 199.605 14.0223 199.605 13.9854V12.7716C199.606 12.7421 199.599 12.7128 199.587 12.6861C199.574 12.6594 199.555 12.6362 199.532 12.6182C198.728 11.9941 197.742 11.6499 196.724 11.6379Z" fill="#1B223B"/>
<path d="M213.677 13.772C213 13.0804 212.189 12.5345 211.293 12.1675C210.397 11.8005 209.436 11.6203 208.468 11.6379C207.497 11.6252 206.532 11.8096 205.634 12.1798C204.735 12.55 203.921 13.0985 203.24 13.792C202.549 14.4504 202 15.2433 201.627 16.1219C201.255 17.0005 201.066 17.9461 201.072 18.9005C201.069 19.8593 201.256 20.8092 201.622 21.6952C201.989 22.5812 202.527 23.3858 203.207 24.0623C203.859 24.7696 204.653 25.3325 205.536 25.715C206.419 26.0974 207.373 26.291 208.335 26.2831H208.602C209.562 26.2942 210.515 26.1035 211.397 25.7232C212.279 25.3429 213.072 24.7817 213.724 24.0757C214.399 23.3972 214.932 22.5917 215.294 21.7057C215.656 20.8197 215.838 19.8708 215.831 18.9138C215.844 17.9549 215.659 17.0036 215.288 16.1191C214.918 15.2345 214.369 14.4356 213.677 13.772ZM214.491 18.9739C214.499 19.769 214.347 20.5577 214.044 21.2931C213.742 22.0286 213.295 22.6958 212.73 23.2554C212.188 23.8333 211.531 24.2919 210.802 24.6019C210.073 24.9119 209.287 25.0666 208.495 25.056C206.888 25.0353 205.353 24.3878 204.217 23.2517C203.081 22.1155 202.434 20.5805 202.413 18.9739C202.41 18.1722 202.568 17.378 202.878 16.6389C203.189 15.8998 203.645 15.231 204.22 14.6723C204.767 14.0911 205.427 13.6289 206.161 13.3144C206.894 13 207.684 12.8402 208.482 12.845C209.275 12.8382 210.06 12.9959 210.789 13.3081C211.518 13.6203 212.174 14.0803 212.717 14.659C213.285 15.2234 213.735 15.8959 214.04 16.637C214.345 17.3781 214.498 18.1726 214.491 18.9739Z" fill="#1B223B"/>
</svg>
