<svg width="24" height="24" viewBox="0 0 24 24" fill="none" xmlns="http://www.w3.org/2000/svg">
<path d="M16.015 14.378C16.015 14.058 15.88 13.882 15.671 13.756C15.461 13.636 15.207 13.621 14.861 13.621H13.318V16.441H13.993V15.414H14.713C14.953 15.414 15.103 15.438 15.191 15.539C15.311 15.669 15.295 15.919 15.295 16.089V16.439H15.955V15.884C15.953 15.634 15.938 15.508 15.847 15.368C15.7605 15.2612 15.6464 15.1803 15.517 15.134L15.537 15.126C15.6831 15.0646 15.8073 14.9604 15.8929 14.827C15.9786 14.6936 16.0219 14.5374 16.017 14.379L16.015 14.378ZM15.145 14.785L15.117 14.783C15.027 14.836 14.922 14.841 14.787 14.841H13.977V14.211H14.801C14.921 14.211 15.041 14.211 15.131 14.261C15.1784 14.2839 15.218 14.3203 15.2447 14.3657C15.2714 14.4111 15.2841 14.4634 15.281 14.516C15.281 14.636 15.236 14.731 15.147 14.786L15.145 14.785ZM20.297 15.837H19V16.437H20.304C20.98 16.437 21.354 16.159 21.354 15.553C21.354 15.273 21.288 15.105 21.167 14.971C21.014 14.838 20.775 14.778 20.437 14.764L20.061 14.749C19.957 14.749 19.881 14.749 19.806 14.719C19.7614 14.7054 19.7225 14.6774 19.6954 14.6395C19.6682 14.6015 19.6544 14.5556 19.656 14.509C19.656 14.419 19.673 14.343 19.746 14.299C19.8291 14.2534 19.9235 14.2326 20.018 14.239H21.248V13.637H19.898C19.194 13.637 18.94 14.074 18.94 14.477C18.94 15.377 19.716 15.332 20.347 15.347C20.451 15.347 20.527 15.362 20.572 15.407C20.618 15.437 20.654 15.513 20.654 15.587C20.654 15.664 20.619 15.737 20.574 15.767C20.514 15.82 20.424 15.837 20.297 15.837ZM0 0V10.096L0.81 8.22H2.56L2.785 8.684V8.22H4.828L5.278 9.24L5.715 8.227H12.217C12.512 8.227 12.777 8.284 12.973 8.463V8.233H14.76V8.463C15.067 8.293 15.446 8.233 15.88 8.233H18.486L18.726 8.699V8.233H20.644L20.898 8.698V8.232H22.756V12.18H20.87L20.51 11.58V12.165H18.157L17.901 11.535H17.318L17.048 12.149H15.835C15.355 12.149 14.995 12.045 14.755 11.909V12.149H11.865V11.265C11.865 11.145 11.835 11.145 11.76 11.13H11.655V12.166H6.067V11.686L5.857 12.166H4.69L4.488 11.686V12.151H2.235L1.979 11.527H1.4L1.144 12.151H0V24H23.786V16.892C23.516 17.027 23.173 17.072 22.813 17.072H21.09V16.817C20.88 16.982 20.52 17.072 20.176 17.072H14.71V16.172C14.71 16.052 14.692 16.052 14.59 16.052H14.515V17.074H12.715V16.008C12.417 16.144 12.072 16.158 11.787 16.144H11.573V17.059H9.393L8.853 16.442L8.283 17.042H4.742V13.112H8.352L8.87 13.714L9.424 13.114H11.836C12.116 13.114 12.576 13.144 12.778 13.339V13.099H14.955C15.157 13.099 15.599 13.144 15.858 13.324V13.084H19.123V13.324C19.286 13.16 19.631 13.084 19.926 13.084H21.816V13.324C22.01 13.174 22.28 13.084 22.656 13.084H23.832V0H0ZM21.156 14.955C21.16 14.96 21.162 14.967 21.166 14.971C21.176 14.981 21.19 14.981 21.198 14.991L21.156 14.956V14.955ZM23.828 13.082H23.893V13.637H23.828V13.082ZM23.865 15.03V15.025C23.835 15 23.819 14.977 23.79 14.955C23.64 14.802 23.4 14.74 23.026 14.73L22.666 14.718C22.575 14.722 22.4839 14.7119 22.396 14.688C22.3514 14.6744 22.3125 14.6464 22.2854 14.6085C22.2582 14.5705 22.2444 14.5246 22.246 14.478C22.246 14.388 22.276 14.318 22.336 14.274C22.412 14.229 22.486 14.224 22.606 14.224H23.829V13.636H22.546C21.856 13.636 21.586 14.073 21.586 14.476C21.586 15.376 22.366 15.331 22.996 15.346C23.1 15.346 23.176 15.361 23.22 15.406C23.266 15.436 23.296 15.512 23.296 15.586C23.296 15.656 23.262 15.724 23.206 15.766C23.161 15.822 23.07 15.836 22.936 15.836H21.648V16.441H22.935C23.355 16.441 23.669 16.323 23.835 16.081H23.865C23.955 15.947 24 15.781 24 15.558C24 15.318 23.955 15.168 23.865 15.032V15.03ZM18.597 14.208V13.625H16.362V16.458H18.597V15.873H17.027V15.303H18.56V14.719H17.028V14.209L18.597 14.208ZM13.51 8.787H14.195V11.6H13.511L13.51 8.787ZM13.126 9.543L13.119 9.549C13.119 9.235 12.989 9.049 12.779 8.925C12.562 8.8 12.309 8.79 11.969 8.79H10.43V11.61H11.104V10.576H11.824C12.064 10.576 12.214 10.606 12.311 10.696C12.433 10.832 12.418 11.074 12.418 11.244V11.598H13.095V11.045C13.095 10.795 13.079 10.67 12.985 10.529C12.8975 10.4226 12.7838 10.3409 12.655 10.292C12.827 10.222 13.127 9.992 13.127 9.542L13.126 9.543ZM12.271 9.939H12.256C12.166 9.993 12.061 9.995 11.926 9.995H11.1V9.372H11.925C12.045 9.372 12.165 9.376 12.255 9.422C12.345 9.462 12.405 9.55 12.405 9.672C12.405 9.794 12.358 9.892 12.271 9.938V9.939ZM15.92 9.373H16.552V8.773H15.908C15.444 8.773 15.104 8.878 14.888 9.103C14.602 9.403 14.526 9.793 14.526 10.213C14.526 10.725 14.649 11.046 14.886 11.287C15.118 11.525 15.531 11.597 15.856 11.597H16.636L16.891 10.97H18.281L18.543 11.597H19.903V9.487L21.175 11.597H22.125L22.127 11.599V8.786H21.443V10.749L20.263 8.789H19.243V11.4L18.11 8.744H17.106L16.163 10.964H15.863C15.686 10.964 15.501 10.934 15.395 10.83C15.27 10.68 15.209 10.47 15.209 10.168C15.209 9.883 15.289 9.658 15.403 9.538C15.536 9.403 15.675 9.373 15.919 9.373H15.92ZM17.588 9.265L18.052 10.383V10.385H17.122L17.588 9.265ZM2.38 10.97L2.634 11.598H4V9.393L4.972 11.598H5.556L6.529 9.396L6.544 11.598H7.234V8.788H6.118L5.311 10.692L4.435 8.787H3.343V11.45L2.205 8.787H1.208L0.01 11.597H0.73L0.99 10.971H2.38V10.97ZM1.692 9.265L2.152 10.383L2.149 10.385H1.234L1.691 9.265H1.692ZM11.856 13.62H9.714L8.864 14.543L8.039 13.621H5.346V16.441H8L8.855 15.509L9.679 16.439H10.981V15.499H11.819C12.419 15.499 12.989 15.335 12.989 14.554L12.983 14.551C12.983 13.771 12.385 13.621 11.855 13.621L11.856 13.62ZM7.67 15.853L7.656 15.851H6.02V15.294H7.49V14.72H6.02V14.21H7.7L8.433 15.03L7.669 15.854L7.67 15.853ZM10.312 16.183L9.282 15.036L10.312 13.928V16.181V16.183ZM11.865 14.925H10.98V14.208H11.865C12.105 14.208 12.285 14.306 12.285 14.552C12.285 14.795 12.135 14.924 11.865 14.924V14.925ZM9.967 9.373V8.787H7.73V11.6H9.967V11.02H8.4V10.456H9.927V9.88H8.4V9.373" fill="#016FCF"/>
</svg>
