<svg width="32" height="25" viewBox="0 0 32 25" fill="none" xmlns="http://www.w3.org/2000/svg">
<path d="M5.81569 24.8752V23.2205C5.81569 22.5861 5.43144 22.1725 4.77281 22.1725C4.44356 22.1725 4.08681 22.2828 3.83981 22.6414C3.64781 22.338 3.37344 22.1725 2.96181 22.1725C2.68731 22.1725 2.41306 22.2552 2.19344 22.5586V22.2277H1.61719V24.8752H2.19344V23.4135C2.19344 22.9448 2.44044 22.724 2.82469 22.724C3.20869 22.724 3.40094 22.9723 3.40094 23.4135V24.8752H3.97719V23.4135C3.97719 22.9448 4.25144 22.724 4.60819 22.724C4.99244 22.724 5.18444 22.9723 5.18444 23.4135V24.8752H5.81569V24.8752ZM14.3496 22.2277H13.4167V21.4279H12.8404V22.2277H12.3191V22.7515H12.8403V23.9651C12.8403 24.5719 13.0873 24.9303 13.7459 24.9303C13.9929 24.9303 14.2672 24.8477 14.4594 24.7374L14.2947 24.2409C14.1301 24.3512 13.9381 24.3788 13.8008 24.3788C13.5264 24.3788 13.4167 24.2134 13.4167 23.9375V22.7515H14.3496V22.2277V22.2277ZM19.2341 22.1724C18.9048 22.1724 18.6853 22.338 18.5481 22.5586V22.2277H17.9718V24.8752H18.5481V23.386C18.5481 22.9448 18.7401 22.6965 19.0968 22.6965C19.2066 22.6965 19.3438 22.7242 19.4536 22.7517L19.6182 22.2002C19.5084 22.1725 19.3438 22.1725 19.2341 22.1725V22.1724ZM11.8526 22.4483C11.5781 22.2552 11.1939 22.1725 10.7823 22.1725C10.1238 22.1725 9.68481 22.5034 9.68481 23.0274C9.68481 23.4688 10.0141 23.7169 10.5903 23.7997L10.8647 23.8273C11.1666 23.8823 11.3312 23.9651 11.3312 24.1031C11.3312 24.296 11.1117 24.434 10.7274 24.434C10.3433 24.434 10.0414 24.296 9.84931 24.1582L9.57494 24.5994C9.87681 24.82 10.2884 24.9303 10.6999 24.9303C11.4683 24.9303 11.9074 24.5719 11.9074 24.0754C11.9074 23.6066 11.5507 23.3583 11.0018 23.2757L10.7274 23.248C10.4804 23.2204 10.2884 23.1654 10.2884 22.9999C10.2884 22.8068 10.4804 22.6965 10.7823 22.6965C11.1117 22.6965 11.4409 22.8343 11.6056 22.9171L11.8526 22.4483V22.4483ZM27.1644 22.1725C26.8351 22.1725 26.6156 22.338 26.4783 22.5586V22.2277H25.9021V24.8752H26.4783V23.386C26.4783 22.9448 26.6704 22.6965 27.0271 22.6965C27.1369 22.6965 27.2742 22.7242 27.3839 22.7517L27.5486 22.2002C27.4388 22.1725 27.2742 22.1725 27.1644 22.1725V22.1725ZM19.8103 23.5514C19.8103 24.3512 20.3591 24.9303 21.2098 24.9303C21.5939 24.9303 21.8683 24.8477 22.1427 24.627L21.8683 24.1582C21.6488 24.3237 21.4293 24.4063 21.1823 24.4063C20.7158 24.4063 20.3866 24.0754 20.3866 23.5514C20.3866 23.0551 20.7158 22.724 21.1823 22.6965C21.4293 22.6965 21.6488 22.7792 21.8683 22.9448L22.1427 22.4759C21.8683 22.2552 21.5939 22.1725 21.2098 22.1725C20.3591 22.1725 19.8103 22.7517 19.8103 23.5514ZM25.1338 23.5514V22.2277H24.5576V22.5586C24.3654 22.3105 24.0911 22.1725 23.7343 22.1725C22.9934 22.1725 22.4172 22.7517 22.4172 23.5514C22.4172 24.3512 22.9934 24.9303 23.7343 24.9303C24.1184 24.9303 24.3929 24.7925 24.5576 24.5443V24.8752H25.1338V23.5514V23.5514ZM23.0208 23.5514C23.0208 23.0826 23.3227 22.6965 23.8166 22.6965C24.2831 22.6965 24.6124 23.0551 24.6124 23.5514C24.6124 24.0203 24.2831 24.4063 23.8166 24.4063C23.3227 24.3787 23.0208 24.0203 23.0208 23.5514V23.5514ZM16.1333 22.1725C15.3649 22.1725 14.8161 22.724 14.8161 23.5514C14.8161 24.3788 15.3648 24.9303 16.1607 24.9303C16.5448 24.9303 16.9291 24.82 17.2309 24.5719L16.9564 24.1582C16.7369 24.3237 16.4626 24.434 16.1882 24.434C15.8314 24.434 15.4747 24.2685 15.3923 23.7995H17.3407V23.5791C17.3682 22.724 16.8742 22.1725 16.1332 22.1725H16.1333ZM16.1333 22.6689C16.4899 22.6689 16.7371 22.8896 16.7918 23.3033H15.4198C15.4747 22.9448 15.7217 22.6689 16.1333 22.6689ZM30.4298 23.5514V21.1797H29.8536V22.5586C29.6614 22.3105 29.3871 22.1725 29.0303 22.1725C28.2894 22.1725 27.7132 22.7517 27.7132 23.5514C27.7132 24.3512 28.2894 24.9303 29.0303 24.9303C29.4146 24.9303 29.6889 24.7925 29.8536 24.5443V24.8752H30.4298V23.5514V23.5514ZM28.3169 23.5514C28.3169 23.0826 28.6187 22.6965 29.1127 22.6965C29.5792 22.6965 29.9084 23.0551 29.9084 23.5514C29.9084 24.0203 29.5792 24.4063 29.1127 24.4063C28.6187 24.3787 28.3169 24.0203 28.3169 23.5514V23.5514ZM9.05356 23.5514V22.2277H8.47731V22.5586C8.28519 22.3105 8.01081 22.1725 7.65406 22.1725C6.91319 22.1725 6.33694 22.7517 6.33694 23.5514C6.33694 24.3512 6.91319 24.9303 7.65406 24.9303C8.03831 24.9303 8.31269 24.7925 8.47731 24.5443V24.8752H9.05356V23.5514V23.5514ZM6.91319 23.5514C6.91319 23.0826 7.21506 22.6965 7.70894 22.6965C8.17544 22.6965 8.50481 23.0551 8.50481 23.5514C8.50481 24.0203 8.17544 24.4063 7.70894 24.4063C7.21506 24.3787 6.91319 24.0203 6.91319 23.5514V23.5514Z" fill="black"/>
<path d="M11.6641 2.125H20.3078V17.7344H11.6641V2.125Z" fill="#FF5F00"/>
<path d="M12.2111 9.92827C12.2111 6.75678 13.6929 3.94372 15.9704 2.12349C14.2966 0.799749 12.1837 0 9.87875 0C4.41787 0 0 4.44007 0 9.92827C0 15.4163 4.41787 19.8565 9.87862 19.8565C12.1836 19.8565 14.2965 19.0568 15.9704 17.7329C13.6929 15.9403 12.2111 13.0997 12.2111 9.92827V9.92827Z" fill="#EB001B"/>
<path d="M31.9704 9.92827C31.9704 15.4163 27.5525 19.8565 22.0917 19.8565C19.7867 19.8565 17.6739 19.0568 16 17.7329C18.305 15.9128 19.7594 13.0997 19.7594 9.92827C19.7594 6.75678 18.2775 3.94372 16 2.12349C17.6738 0.799749 19.7867 0 22.0917 0C27.5525 0 31.9705 4.46771 31.9705 9.92827H31.9704Z" fill="#F79E1B"/>
</svg>
