<svg width="45" height="13" viewBox="0 0 45 13" fill="none" xmlns="http://www.w3.org/2000/svg">
<g clip-path="url(#clip0_292_5565)">
<path d="M44.7114 2.4375H43.1068C42.9473 2.4375 42.8535 2.51704 42.8248 2.67613L41.4152 11.6977L41.3934 11.7411C41.3934 11.8137 41.4223 11.8821 41.4803 11.9472C41.5378 12.0121 41.6105 12.0447 41.6971 12.0447H43.1285C43.4029 12.0447 43.5547 11.9076 43.5839 11.6327L44.9936 2.76264V2.74109C44.9935 2.53872 44.8993 2.4375 44.7114 2.4375ZM40.873 5.6253H39.2247C39.0222 5.6253 38.8996 5.86394 38.8563 6.34107C38.4799 5.76298 37.7937 5.47351 36.7958 5.47351C35.7549 5.47351 34.8691 5.86394 34.1393 6.64467C33.4091 7.42539 33.0442 8.34366 33.0442 9.39895C33.0442 10.2521 33.2935 10.9316 33.7922 11.4374C34.291 11.9438 34.9597 12.1965 35.7984 12.1965C36.2176 12.1965 36.6441 12.1096 37.0778 11.9362C37.5115 11.7627 37.851 11.5315 38.0972 11.2423C38.0972 11.2568 38.0825 11.3217 38.0538 11.4373C38.0247 11.5532 38.0104 11.6401 38.0104 11.6976C38.0104 11.9292 38.1041 12.0445 38.2924 12.0445H39.7889C40.0631 12.0445 40.2225 11.9074 40.2657 11.6326L41.155 5.97232C41.1692 5.88555 41.1475 5.80614 41.0899 5.73375C41.0318 5.66156 40.9598 5.6253 40.873 5.6253ZM38.0429 9.8977C37.6743 10.2592 37.2297 10.4398 36.7093 10.4398C36.2898 10.4398 35.9503 10.3243 35.69 10.0928C35.4296 9.8619 35.2995 9.54379 35.2995 9.13865C35.2995 8.60404 35.4802 8.1519 35.8417 7.78328C36.2028 7.41459 36.6514 7.23024 37.1863 7.23024C37.5908 7.23024 37.927 7.34956 38.1948 7.58799C38.462 7.82663 38.596 8.15561 38.596 8.57494C38.5959 9.09536 38.4116 9.53643 38.0429 9.8977ZM32.7296 3.01208C32.1729 2.62933 31.4466 2.4375 30.5501 2.4375H27.1021C26.8128 2.4375 26.6536 2.57491 26.6249 2.84947L25.2154 11.6977C25.2007 11.7846 25.2223 11.864 25.2803 11.9363C25.3378 12.0087 25.4105 12.0447 25.4972 12.0447H27.2754C27.4488 12.0447 27.5645 11.9508 27.6223 11.7628L28.0128 9.24729C28.0271 9.13168 28.0778 9.03769 28.1645 8.9653C28.2513 8.89305 28.3596 8.84579 28.4899 8.82411C28.62 8.80264 28.7426 8.79183 28.8586 8.79183C28.9741 8.79183 29.1115 8.79912 29.2705 8.81351C29.4296 8.82796 29.531 8.83498 29.5741 8.83498C30.8176 8.83498 31.7934 8.48466 32.5018 7.78328C33.2102 7.08216 33.5644 6.10999 33.5644 4.86639C33.5645 4.01347 33.286 3.39541 32.7296 3.01208ZM30.5068 6.57964C30.1887 6.79646 29.7115 6.90484 29.0755 6.90484L28.3814 6.92652L28.7503 4.60601C28.7789 4.44712 28.8728 4.36758 29.0321 4.36758H29.4223C29.7403 4.36758 29.9933 4.38203 30.1815 4.41086C30.3692 4.43996 30.5501 4.53011 30.7236 4.68191C30.8972 4.83371 30.9839 5.05431 30.9839 5.34339C30.9839 5.95071 30.8246 6.36261 30.5068 6.57964Z" fill="#009CDE"/>
<path d="M8.0969 1.19567C7.54016 0.812928 6.81365 0.621094 5.91739 0.621094H2.44753C2.17277 0.621094 2.02098 0.758506 1.99214 1.03307L0.582549 9.88124C0.5679 9.96815 0.589642 10.0476 0.647577 10.1199C0.70518 10.1923 0.777632 10.2283 0.864401 10.2283H2.51256C2.80164 10.2283 2.96053 10.0912 2.98969 9.81629L3.37999 7.43088C3.39424 7.31528 3.44508 7.22128 3.53185 7.1489C3.61856 7.07664 3.727 7.02938 3.85712 7.00771C3.98724 6.98623 4.10994 6.97542 4.22581 6.97542C4.34135 6.97542 4.47863 6.98272 4.63792 6.9971C4.79681 7.01155 4.89809 7.01858 4.94151 7.01858C6.18479 7.01858 7.16067 6.66825 7.86921 5.96687C8.57742 5.26575 8.93192 4.29359 8.93192 3.04998C8.93192 2.19707 8.65338 1.57901 8.0969 1.19567ZM6.30782 3.85245C6.2353 4.35855 6.04757 4.69091 5.74398 4.85C5.44032 5.00929 5.00661 5.0885 4.44283 5.0885L3.72713 5.11018L4.09589 2.78967C4.12466 2.63078 4.21859 2.55124 4.37774 2.55124H4.78991C5.36794 2.55124 5.78747 2.63456 6.04771 2.80054C6.30782 2.96692 6.39459 3.31765 6.30782 3.85245ZM25.3269 4.11249C25.3269 4.04037 25.2978 3.97157 25.2404 3.90661C25.1824 3.84158 25.1172 3.8089 25.0452 3.8089H23.3752C23.2159 3.8089 23.0858 3.88155 22.9849 4.02572L20.6861 7.40901L19.7319 4.15598C19.6593 3.92483 19.5004 3.8089 19.2548 3.8089H17.6281C17.5556 3.8089 17.4906 3.84151 17.4332 3.90661C17.3752 3.97157 17.3464 4.04044 17.3464 4.11249C17.3464 4.14166 17.4874 4.56795 17.7692 5.39203C18.0511 6.21631 18.3547 7.10548 18.68 8.05975C19.0053 9.01381 19.1751 9.52011 19.1896 9.57758C18.004 11.197 17.4114 12.0645 17.4114 12.1799C17.4114 12.3681 17.5053 12.4619 17.6933 12.4619H19.3632C19.5222 12.4619 19.6522 12.3898 19.7536 12.2452L25.2837 4.26429C25.3125 4.23559 25.3269 4.18521 25.3269 4.11249ZM16.2404 3.8089H14.5922C14.3895 3.8089 14.2668 4.04753 14.2234 4.52467C13.833 3.94658 13.1462 3.6571 12.1631 3.6571C11.1222 3.6571 10.2365 4.04753 9.50649 4.82826C8.77628 5.60899 8.41137 6.52726 8.41137 7.58255C8.41137 8.43572 8.6608 9.11517 9.15961 9.621C9.65842 10.1274 10.3269 10.3801 11.1656 10.3801C11.5702 10.3801 11.9897 10.2932 12.4234 10.1198C12.8571 9.94634 13.2041 9.71513 13.4644 9.42585C13.4064 9.59933 13.3776 9.75119 13.3776 9.88118C13.3776 10.1128 13.4715 10.2281 13.6595 10.2281H15.1559C15.4304 10.2281 15.5896 10.091 15.633 9.81615L16.5221 4.15591C16.5364 4.06914 16.5147 3.98973 16.4571 3.91734C16.3992 3.84516 16.327 3.8089 16.2404 3.8089ZM13.4102 8.09203C13.0414 8.44666 12.5894 8.62338 12.0548 8.62338C11.6353 8.62338 11.2992 8.50791 11.0463 8.27644C10.7932 8.0455 10.6668 7.72739 10.6668 7.32224C10.6668 6.78764 10.8474 6.33549 11.209 5.96687C11.5702 5.59818 12.0184 5.41384 12.5536 5.41384C12.9582 5.41384 13.2943 5.53315 13.5621 5.77159C13.8293 6.01022 13.9632 6.3392 13.9632 6.75853C13.9632 7.29347 13.7789 7.73819 13.4102 8.09203Z" fill="#003087"/>
</g>
<defs>
<clipPath id="clip0_292_5565">
<rect width="44.419" height="11.8408" fill="white" transform="translate(0.578125 0.621094)"/>
</clipPath>
</defs>
</svg>
