<svg width="44" height="15" viewBox="0 0 44 15" fill="none" xmlns="http://www.w3.org/2000/svg">
<path d="M22.7557 4.77755C22.7306 6.85876 24.5197 8.02008 25.8674 8.71062C27.252 9.41906 27.7171 9.87339 27.7116 10.507C27.7013 11.4766 26.6071 11.9045 25.5833 11.9212C23.797 11.9503 22.7583 11.4141 21.9326 11.0085L21.2891 14.1746C22.1176 14.576 23.6515 14.926 25.2423 14.9414C28.9762 14.9414 31.4191 13.0033 31.4323 9.99846C31.4469 6.18484 26.4156 5.97376 26.45 4.26918C26.4619 3.75231 26.9309 3.20074 27.9587 3.0605C28.4675 2.98966 29.8719 2.93544 31.4641 3.70641L32.0891 0.643155C31.2328 0.315324 30.1323 0.00140762 28.7621 0.00140762C25.2476 0.00140762 22.7757 1.96587 22.7557 4.77755ZM38.094 0.265263C37.4122 0.265263 36.8376 0.683455 36.5812 1.3252L31.2474 14.7164H34.9786L35.7211 12.5588H40.2806L40.7113 14.7164H44L41.1302 0.265263H38.094ZM38.616 4.16906L39.6928 9.59562H36.7438L38.616 4.16906ZM18.2318 0.265444L15.2907 14.7162H18.8463L21.786 0.265082H18.2318V0.265444ZM12.9719 0.265082L9.27111 10.1013L7.77408 1.73797C7.59842 0.804359 6.90473 0.265263 6.13439 0.265263H0.0847344L0 0.684901C1.24197 0.968274 2.65306 1.42532 3.50797 1.91436C4.03116 2.21309 4.18034 2.47424 4.35222 3.18412L7.18764 14.7164H10.945L16.7056 0.265263H12.9719" fill="url(#paint0_linear_292_5529)"/>
<defs>
<linearGradient id="paint0_linear_292_5529" x1="20.2286" y1="15.2411" x2="20.6832" y2="-0.101209" gradientUnits="userSpaceOnUse">
<stop stop-color="#222357"/>
<stop offset="1" stop-color="#254AA5"/>
</linearGradient>
</defs>
</svg>
